G04 #@! TF.FileFunction,Paste,Top*
%FSLAX46Y46*%
G04 Gerber Fmt 4.6, Leading zero omitted, Abs format (unit mm)*
G04 Created by KiCad (PCBNEW 4.0.7) date 07/15/18 14:57:06*
%MOMM*%
%LPD*%
G01*
G04 APERTURE LIST*
%ADD10C,0.100000*%
%ADD11R,1.500000X1.500000*%
%ADD12R,0.900000X1.700000*%
%ADD13R,0.600000X1.500000*%
G04 APERTURE END LIST*
D10*
D11*
X131064000Y-123316000D03*
X131064000Y-120016000D03*
X131064000Y-131444000D03*
X131064000Y-128144000D03*
X131064000Y-139572000D03*
X131064000Y-136272000D03*
X131064000Y-147700000D03*
X131064000Y-144400000D03*
X131064000Y-156336000D03*
X131064000Y-153036000D03*
X139192000Y-123316000D03*
X139192000Y-120016000D03*
X139192000Y-131444000D03*
X139192000Y-128144000D03*
X139192000Y-139572000D03*
X139192000Y-136272000D03*
X139192000Y-147700000D03*
X139192000Y-144400000D03*
X139192000Y-156336000D03*
X139192000Y-153036000D03*
X147320000Y-123316000D03*
X147320000Y-120016000D03*
X147320000Y-131444000D03*
X147320000Y-128144000D03*
X147320000Y-139572000D03*
X147320000Y-136272000D03*
X147320000Y-147700000D03*
X147320000Y-144400000D03*
X147320000Y-156336000D03*
X147320000Y-153036000D03*
X155448000Y-123316000D03*
X155448000Y-120016000D03*
X155448000Y-131444000D03*
X155448000Y-128144000D03*
X155448000Y-139572000D03*
X155448000Y-136272000D03*
X155448000Y-147700000D03*
X155448000Y-144400000D03*
X155448000Y-156336000D03*
X155448000Y-153036000D03*
X163576000Y-123316000D03*
X163576000Y-120016000D03*
X163576000Y-131444000D03*
X163576000Y-128144000D03*
X163576000Y-139572000D03*
X163576000Y-136272000D03*
X163576000Y-147700000D03*
X163576000Y-144400000D03*
X163576000Y-156336000D03*
X163576000Y-153036000D03*
D12*
X125021000Y-127508000D03*
X122121000Y-127508000D03*
X125021000Y-131699000D03*
X122121000Y-131699000D03*
X125021000Y-135890000D03*
X122121000Y-135890000D03*
X125021000Y-140081000D03*
X122121000Y-140081000D03*
X125021000Y-144272000D03*
X122121000Y-144272000D03*
X125021000Y-148463000D03*
X122121000Y-148463000D03*
D13*
X143510000Y-108618000D03*
X144780000Y-108618000D03*
X146050000Y-108618000D03*
X147320000Y-108618000D03*
X148590000Y-108618000D03*
X149860000Y-108618000D03*
X151130000Y-108618000D03*
X151130000Y-103218000D03*
X149860000Y-103218000D03*
X148590000Y-103218000D03*
X147320000Y-103218000D03*
X146050000Y-103218000D03*
X144780000Y-103218000D03*
X143510000Y-103218000D03*
M02*
